<?xml version="1.0" standalone="no"?>
<!DOCTYPE svg PUBLIC "-//W3C//DTD SVG 20010904//EN"
 "http://www.w3.org/TR/2001/REC-SVG-20010904/DTD/svg10.dtd">
<svg version="1.0" xmlns="http://www.w3.org/2000/svg"
 width="200.000000pt" height="100.000000pt" viewBox="0 0 200.000000 100.000000"
 preserveAspectRatio="xMidYMid meet">
<metadata>
Created by potrace 1.16, written by Peter Selinger 2001-2019
</metadata>
<g transform="translate(0.000000,100.000000) scale(0.100000,-0.100000)"
fill="#000000" stroke="none">
<path d="M90 984 c-22 -9 -47 -31 -63 -56 l-27 -42 0 -361 c0 -372 4 -408 43
-467 41 -60 1 -58 962 -58 1000 0 926 -7 970 85 l25 54 0 368 0 369 -27 42
c-19 29 -41 47 -74 62 -47 20 -64 20 -911 19 -736 0 -868 -2 -898 -15z m1800
-59 c61 -31 65 -52 68 -353 l3 -272 -960 0 -961 0 0 265 c0 289 4 313 55 353
l28 22 869 0 c757 0 873 -2 898 -15z"/>
<path d="M298 803 c-35 -22 -61 -86 -53 -129 9 -50 41 -81 105 -105 75 -27 97
-50 82 -84 -23 -51 -104 -41 -125 15 -10 25 -17 30 -45 30 -34 0 -34 0 -27
-37 15 -81 69 -119 155 -111 61 6 96 35 111 92 13 46 0 103 -28 129 -10 8 -48
27 -85 42 -74 30 -92 53 -62 86 29 32 94 18 94 -21 0 -17 7 -20 39 -20 l39 0
-9 38 c-12 56 -58 92 -117 92 -26 0 -59 -8 -74 -17z"/>
<path d="M905 800 c-17 -11 -42 -39 -55 -62 -22 -37 -25 -55 -25 -138 0 -79 4
-102 22 -136 62 -116 207 -112 270 6 22 40 24 56 21 135 -4 104 -25 156 -78
193 -42 28 -113 30 -155 2z m139 -93 c30 -41 30 -173 0 -214 -40 -53 -106 -43
-134 20 -33 72 -19 180 28 215 28 21 82 11 106 -21z"/>
<path d="M520 770 l0 -40 50 0 50 0 0 -170 0 -170 40 0 40 0 0 170 0 170 50 0
50 0 0 40 0 40 -140 0 -140 0 0 -40z"/>
<path d="M1200 600 l0 -210 35 0 35 0 0 75 0 75 60 0 c52 0 64 4 92 29 30 26
33 35 36 100 4 70 4 71 -31 106 l-35 35 -96 0 -96 0 0 -210z"/>
<path d="M1518 618 c-31 -106 -60 -201 -63 -210 -6 -15 -1 -18 32 -18 38 0 39
1 51 45 l12 46 62 -3 62 -3 12 -40 c10 -37 14 -40 48 -43 45 -4 48 -24 -28
233 l-52 180 -40 3 -39 3 -57 -193z"/>
</g>
</svg>
